<svg width="16.799805" height="14.399902" viewBox="0 0 16.7998 14.3999" fill="none" xmlns="http://www.w3.org/2000/svg" xmlns:xlink="http://www.w3.org/1999/xlink">
	<desc>
			Created with Pixso.
	</desc>
	<defs/>
	<path id="Vector" d="M0 1.19C0 0.88 0.12 0.57 0.35 0.35C0.57 0.12 0.88 0 1.2 0L15.59 0C15.91 0 16.22 0.12 16.44 0.35C16.67 0.57 16.79 0.88 16.79 1.19C16.79 1.51 16.67 1.82 16.44 2.04C16.22 2.27 15.91 2.39 15.59 2.39L1.2 2.39C0.88 2.39 0.57 2.27 0.35 2.04C0.12 1.82 0 1.51 0 1.19Z" fill="#2F2F37" fill-opacity="1.000000" fill-rule="evenodd"/>
	<path id="Vector" d="M0 7.19C0 6.88 0.12 6.57 0.35 6.35C0.57 6.12 0.88 6 1.2 6L15.59 6C15.91 6 16.22 6.12 16.44 6.35C16.67 6.57 16.79 6.88 16.79 7.19C16.79 7.51 16.67 7.82 16.44 8.04C16.22 8.27 15.91 8.39 15.59 8.39L1.2 8.39C0.88 8.39 0.57 8.27 0.35 8.04C0.12 7.82 0 7.51 0 7.19Z" fill="#2F2F37" fill-opacity="1.000000" fill-rule="evenodd"/>
	<path id="Vector" d="M0 13.2C0 12.88 0.12 12.57 0.35 12.35C0.57 12.12 0.88 12 1.2 12L15.59 12C15.91 12 16.22 12.12 16.44 12.35C16.67 12.57 16.79 12.88 16.79 13.2C16.79 13.51 16.67 13.82 16.44 14.04C16.22 14.27 15.91 14.39 15.59 14.39L1.2 14.39C0.88 14.39 0.57 14.27 0.35 14.04C0.12 13.82 0 13.51 0 13.2Z" fill="#2F2F37" fill-opacity="1.000000" fill-rule="evenodd"/>
</svg>
